<?xml version="1.0" encoding="UTF-8"?>
<svg version="1.1" xmlns="http://www.w3.org/2000/svg" width="512" height="512" fill="none">
  <g>
    <path d="M0 0 C1.65 0.33 3.3 0.66 5 1 C5.33 2.32 5.66 3.64 6 5 C6.66 5 7.32 5 8 5 C8 5.66 8 6.32 8 7 C8.66 7 9.32 7 10 7 C10.33 8.65 10.66 10.3 11 12 C11.66 12 12.32 12 13 12 C17 18.625 17 18.625 17 22 C17.66 22 18.32 22 19 22 C19.33 23.65 19.66 25.3 20 27 C20.66 27 21.32 27 22 27 C25 31.38461538 25 31.38461538 25 34 C25.66 34 26.32 34 27 34 C27.33 35.32 27.66 36.64 28 38 C28.66 38 29.32 38 30 38 C30.33 38.99 30.66 39.98 31 41 C31.99 41.495 31.99 41.495 33 42 C33.33333333 43.33333333 33.66666667 44.66666667 34 46 C34.99 46.495 34.99 46.495 36 47 C38.0095568 49.93704456 39 51.39222485 39 55 C39.66 55 40.32 55 41 55 C45 61.75 45 61.75 45 64 C45.66 64 46.32 64 47 64 C47.33 65.65 47.66 67.3 48 69 C48.66 69 49.32 69 50 69 C52.04169485 71.90548882 53 73.40142046 53 77 C53.66 77 54.32 77 55 77 C55.33 78.32 55.66 79.64 56 81 C56.66 81 57.32 81 58 81 C58.33 82.65 58.66 84.3 59 86 C59.66 86 60.32 86 61 86 C61.33 87.65 61.66 89.3 62 91 C62.66 91 63.32 91 64 91 C66.31663844 94.93828536 68.43358249 98.69235185 70 103 C70.66 103 71.32 103 72 103 C72.33 104.65 72.66 106.3 73 108 C73.66 108 74.32 108 75 108 C75.33 109.65 75.66 111.3 76 113 C76.66 113 77.32 113 78 113 C78.33 114.65 78.66 116.3 79 118 C79.66 118 80.32 118 81 118 C81.33 119.65 81.66 121.3 82 123 C82.66 123 83.32 123 84 123 C84 123.99 84 124.98 84 126 C84.66 126 85.32 126 86 126 C86.495 128.475 86.495 128.475 87 131 C87.66 131 88.32 131 89 131 C89.33 132.32 89.66 133.64 90 135 C90.66 135 91.32 135 92 135 C92.495 137.475 92.495 137.475 93 140 C93.66 140 94.32 140 95 140 C95.495 142.475 95.495 142.475 96 145 C96.66 145 97.32 145 98 145 C100.04169485 147.90548882 101 149.40142046 101 153 C101.66 153 102.32 153 103 153 C103.33 153.99 103.66 154.98 104 156 C104.66 156.33 105.32 156.66 106 157 C106.625 159.5625 106.625 159.5625 107 162 C107.66 162 108.32 162 109 162 C109.33 163.98 109.66 165.96 110 168 C110.66 168 111.32 168 112 168 C113.5078125 169.86328125 113.5078125 169.86328125 115.125 172.3125 C115.66382813 173.11300781 116.20265625 173.91351563 116.7578125 174.73828125 C118 177 118 177 118 180 C118.66 180 119.32 180 120 180 C120.495 182.475 120.495 182.475 121 185 C121.66 185 122.32 185 123 185 C123.495 187.475 123.495 187.475 124 190 C124.66 190 125.32 190 126 190 C128.04169485 192.90548882 129 194.40142046 129 198 C129.66 198 130.32 198 131 198 C131.33 199.32 131.66 200.64 132 202 C132.66 202 133.32 202 134 202 C134.33 203.65 134.66 205.3 135 207 C135.66 207 136.32 207 137 207 C137.33 208.98 137.66 210.96 138 213 C138.66 213 139.32 213 140 213 C140.33 214.65 140.66 216.3 141 218 C141.66 218 142.32 218 143 218 C145.31663844 221.93828536 147.43358249 225.69235185 149 230 C149.66 230 150.32 230 151 230 C151.33 231.65 151.66 233.3 152 235 C152.66 235 153.32 235 154 235 C154.33 236.98 154.66 238.96 155 241 C155.66 241 156.32 241 157 241 C159.04169485 243.90548882 160 245.40142046 160 249 C160.66 249 161.32 249 162 249 C166 255.625 166 255.625 166 259 C166.66 259 167.32 259 168 259 C168.33 260.65 168.66 262.3 169 264 C169.66 264 170.32 264 171 264 C171.33 265.65 171.66 267.3 172 269 C172.66 269 173.32 269 174 269 C174 269.99 174 270.98 174 272 C174.66 272 175.32 272 176 272 C176.33 273.98 176.66 275.96 177 278 C177.66 278 178.32 278 179 278 C179.33 279.98 179.66 281.96 180 284 C180.66 284 181.32 284 182 284 C183.19503354 288.38942629 183.84606996 292.48412544 183 297 C181.27473866 299.82000265 179.08134004 301.87304079 176.625 304.0625 C176.02171875 304.64193359 175.4184375 305.22136719 174.796875 305.81835938 C170.35357327 310 170.35357327 310 168 310 C167.67 310.99 167.34 311.98 167 313 C165.29296875 314.75390625 165.29296875 314.75390625 163.1875 316.5625 C162.15689453 317.46162109 162.15689453 317.46162109 161.10546875 318.37890625 C159 320 159 320 156.80078125 321.02734375 C154.64414355 321.92686467 154.64414355 321.92686467 154 325 C153.34 325 152.68 325 152 325 C151.67 325.99 151.34 326.98 151 328 C150.34 328 149.68 328 149 328 C148.67 328.99 148.34 329.98 148 331 C147.34 331 146.68 331 146 331 C146 331.66 146 332.32 146 333 C144.34997172 334.35386936 142.6825613 335.68678142 141 337 C140.67 337.66 140.34 338.32 140 339 C139.34 339 138.68 339 138 339 C137.67 339.99 137.34 340.98 137 342 C136.34 342 135.68 342 135 342 C135 342.66 135 343.32 135 344 C133.33784732 345.33895632 131.67036393 346.67130142 130 348 C129.278125 348.9075 128.55625 349.815 127.8125 350.75 C127.214375 351.4925 126.61625 352.235 126 353 C125.34 353 124.68 353 124 353 C123.67 353.99 123.34 354.98 123 356 C122.34 356 121.68 356 121 356 C120.67 356.99 120.34 357.98 120 359 C119.34 359 118.68 359 118 359 C118 359.66 118 360.32 118 361 C116.33784732 362.33895632 114.67036393 363.67130142 113 365 C112.278125 365.9075 111.55625 366.815 110.8125 367.75 C110.214375 368.4925 109.61625 369.235 109 370 C108.34 370 107.68 370 107 370 C106.67 370.99 106.34 371.98 106 373 C105.34 373 104.68 373 104 373 C104 373.66 104 374.32 104 375 C102.33784732 376.33895632 100.67036393 377.67130142 99 379 C98.278125 379.9075 97.55625 380.815 96.8125 381.75 C96.214375 382.4925 95.61625 383.235 95 384 C94.34 384 93.68 384 93 384 C92.67 384.99 92.34 385.98 92 387 C91.34 387 90.68 387 90 387 C90 387.66 90 388.32 90 389 C88.33784732 390.33895632 86.67036393 391.67130142 85 393 C83.63755204 394.64295195 82.30135125 396.30824337 81 398 C79.375 399.8125 79.375 399.8125 78 401 C77.34 401 76.68 401 76 401 C76 401.66 76 402.32 76 403 C74.33784732 404.33895632 72.67036393 405.67130142 71 407 C70.401875 407.763125 69.80375 408.52625 69.1875 409.3125 C65.61314577 413.70384948 61.44164635 418.18611788 56 420 C55.67 420.99 55.34 421.98 55 423 C54.34 423 53.68 423 53 423 C52.67 423.99 52.34 424.98 52 426 C51.34 426 50.68 426 50 426 C50 426.66 50 427.32 50 428 C48.33784732 429.33895632 46.67036393 430.67130142 45 432 C44.071875 433.175625 44.071875 433.175625 43.125 434.375 C41.32397164 436.59979974 39.68025831 438.19084948 37.5 440 C35.39166609 441.75174467 33.78153789 443.27483943 32.0625 445.4375 C30.19582085 447.75670743 28.38289462 449.45856392 26.125 451.375 C23.50366346 453.6094234 21.18457745 455.83791928 19 458.5 C14.98010224 463.37894441 10.25394974 467.49736684 5 471 C3.35 471 1.7 471 0 471 C0 411.27 0 351.54 0 290 C2.77638024 288.61180988 5.07139127 288.84447078 8.17797852 288.81054688 C9.47594864 288.79382935 10.77391876 288.77711182 12.11122131 288.7598877 C12.80666613 288.75320572 13.50211094 288.74652374 14.21862984 288.73963928 C16.39086333 288.71863438 18.56294691 288.69161154 20.73509216 288.66296387 C26.12877985 288.59308456 31.52257383 288.53365785 36.91638184 288.47393799 C41.47470918 288.42308444 46.03295516 288.36828946 50.59116936 288.30812073 C52.73666369 288.28146423 54.88216529 288.26070138 57.02772522 288.2401123 C58.32254318 288.22339478 59.61736115 288.20667725 60.95141602 288.18945312 C62.67111351 288.17066101 62.67111351 288.17066101 64.42555237 288.15148926 C66.93136887 288.29008081 66.93136887 288.29008081 68 287 C70.73894085 286.91141354 73.4525327 286.88476521 76.19140625 286.90234375 C77.01124496 286.9037587 77.83108368 286.90517365 78.67576599 286.90663147 C81.30471382 286.91224711 83.93357773 286.92480221 86.5625 286.9375 C88.34049357 286.94251299 90.11848846 286.94707624 91.89648438 286.95117188 C96.26435545 286.96222161 100.63216348 286.97949669 105 287 C104.67 285.68 104.34 284.36 104 283 C103.34 283 102.68 283 102 283 C102 282.01 102 281.02 102 280 C101.34 280 100.68 280 100 280 C99.67 278.02 99.34 276.04 99 274 C98.34 274 97.68 274 97 274 C96.67 272.35 96.34 270.7 96 269 C95.34 269 94.68 269 94 269 C93.67 267.02 93.34 265.04 93 263 C92.34 263 91.68 263 91 263 C88.95830515 260.09451118 88 258.59857954 88 255 C87.34 255 86.68 255 86 255 C85.505 252.525 85.505 252.525 85 250 C84.34 250 83.68 250 83 250 C82.67 248.02 82.34 246.04 82 244 C81.34 244 80.68 244 80 244 C79.67 243.01 79.34 242.02 79 241 C78.34 240.67 77.68 240.34 77 240 C76.375 236.9375 76.375 236.9375 76 234 C75.34 234 74.68 234 74 234 C73.505 231.525 73.505 231.525 73 229 C72.34 229 71.68 229 71 229 C68 223.375 68 223.375 68 220 C67.34 220 66.68 220 66 220 C65.505 217.525 65.505 217.525 65 215 C64.34 215 63.68 215 63 215 C62.505 212.525 62.505 212.525 62 210 C61.34 210 60.68 210 60 210 C59.67 208.02 59.34 206.04 59 204 C58.34 204 57.68 204 57 204 C57 203.01 57 202.02 57 201 C56.34 201 55.68 201 55 201 C54.505 198.525 54.505 198.525 54 196 C53.34 196 52.68 196 52 196 C51.67 194.02 51.34 192.04 51 190 C50.34 190 49.68 190 49 190 C48.505 187.525 48.505 187.525 48 185 C47.34 185 46.68 185 46 185 C44.9923048 183.2335343 43.99408286 181.46166177 43 179.6875 C42.443125 178.70136719 41.88625 177.71523437 41.3125 176.69921875 C40 174 40 174 40 171 C39.34 171 38.68 171 38 171 C37.67 169.68 37.34 168.36 37 167 C36.34 167 35.68 167 35 167 C34.67 165.02 34.34 163.04 34 161 C33.34 161 32.68 161 32 161 C31.505 158.525 31.505 158.525 31 156 C30.34 156 29.68 156 29 156 C26 150.375 26 150.375 26 147 C25.34 147 24.68 147 24 147 C23.67 145.35 23.34 143.7 23 142 C22.34 142 21.68 142 21 142 C20.67 140.35 20.34 138.7 20 137 C19.34 137 18.68 137 18 137 C17.67 135.02 17.34 133.04 17 131 C16.34 131 15.68 131 15 131 C12.95830515 128.09451118 12 126.59857954 12 123 C11.34 123 10.68 123 10 123 C9.32591692 121.73308493 8.66099503 120.46129251 8 119.1875 C7.62875 118.47980469 7.2575 117.77210938 6.875 117.04296875 C6 115 6 115 6 112 C5.34 112 4.68 112 4 112 C3.505 109.525 3.505 109.525 3 107 C2.34 107 1.68 107 1 107 C0.505 104.525 0.505 104.525 0 102 C-0.66 102 -1.32 102 -2 102 C-2 69 -2 36 -2 2 C-1.34 2 -0.68 2 0 2 C0 1.34 0 0.68 0 0 Z " transform="translate(266,31)"/>
    <path d="M0 0 C1.65 0 3.3 0 5 0 C5 0.99 5 1.98 5 3 C5.66 3 6.32 3 7 3 C7 54.48 7 105.96 7 159 C6.34 159 5.68 159 5 159 C4.67 160.65 4.34 162.3 4 164 C3.34 164 2.68 164 2 164 C2 164.99 2 165.98 2 167 C1.34 167 0.68 167 0 167 C-0.33 168.98 -0.66 170.96 -1 173 C-1.66 173 -2.32 173 -3 173 C-3.33 174.65 -3.66 176.3 -4 178 C-4.66 178 -5.32 178 -6 178 C-6.20625 178.78375 -6.4125 179.5675 -6.625 180.375 C-8.15726058 184.41459608 -10.20386493 187.78934033 -12.46875 191.453125 C-14.52781641 194.87789872 -16.26705629 198.40080922 -18 202 C-18.66 202 -19.32 202 -20 202 C-20.33 203.98 -20.66 205.96 -21 208 C-21.66 208 -22.32 208 -23 208 C-23.33 209.65 -23.66 211.3 -24 213 C-24.66 213 -25.32 213 -26 213 C-26.12375 213.5775 -26.2475 214.155 -26.375 214.75 C-27.00648824 217.02335767 -27.88858191 218.9253529 -29 221 C-29.66 221 -30.32 221 -31 221 C-31.33 222.98 -31.66 224.96 -32 227 C-32.66 227 -33.32 227 -34 227 C-34.33 228.65 -34.66 230.3 -35 232 C-35.66 232 -36.32 232 -37 232 C-37.11214844 232.72574219 -37.22429687 233.45148438 -37.33984375 234.19921875 C-38.02961387 237.12563993 -39.05510814 239.22287809 -40.5625 241.8125 C-41.01753906 242.60269531 -41.47257813 243.39289063 -41.94140625 244.20703125 C-42.29074219 244.79871094 -42.64007813 245.39039063 -43 246 C-43.66 246 -44.32 246 -45 246 C-45.33 247.65 -45.66 249.3 -46 251 C-46.66 251 -47.32 251 -48 251 C-48.33 252.65 -48.66 254.3 -49 256 C-49.66 256 -50.32 256 -51 256 C-51.33 257.65 -51.66 259.3 -52 261 C-52.66 261 -53.32 261 -54 261 C-54.33 262.98 -54.66 264.96 -55 267 C-55.66 267 -56.32 267 -57 267 C-57.185625 267.86625 -57.185625 267.86625 -57.375 268.75 C-58.00648824 271.02335767 -58.88858191 272.9253529 -60 275 C-60.66 275 -61.32 275 -62 275 C-62.33 276.65 -62.66 278.3 -63 280 C-63.66 280 -64.32 280 -65 280 C-65.33 281.98 -65.66 283.96 -66 286 C-66.66 286 -67.32 286 -68 286 C-68.226875 286.721875 -68.45375 287.44375 -68.6875 288.1875 C-70.39009952 291.83592754 -71.75766454 293.54478731 -75 296 C-78.70600007 296.71283403 -82.35076544 296.60447691 -86.11328125 296.5234375 C-87.21975006 296.5191423 -88.32621887 296.51484711 -89.46621704 296.51042175 C-93.08231443 296.48984193 -96.69682692 296.4331009 -100.3125 296.375 C-102.80084685 296.35228572 -105.28921087 296.33138209 -107.77758789 296.31225586 C-115.18579984 296.24578821 -122.59264234 296.12867048 -130 296 C-131.07946899 295.98241638 -132.15893799 295.96483276 -133.27111816 295.94671631 C-142.98261522 295.78827099 -152.69354024 295.59728049 -162.40234375 295.31640625 C-163.68616943 295.27974854 -164.96999512 295.24309082 -166.29272461 295.20532227 C-177.4104155 294.5895845 -177.4104155 294.5895845 -179 293 C-179.04063832 291.33382885 -179.042721 289.66611905 -179 288 C-178.34 288 -177.68 288 -177 288 C-176.87625 287.0925 -176.7525 286.185 -176.625 285.25 C-176.07890323 282.41029677 -175.42736197 280.47409409 -174 278 C-173.34 278 -172.68 278 -172 278 C-171.67 276.02 -171.34 274.04 -171 272 C-170.34 272 -169.68 272 -169 272 C-168.67 270.35 -168.34 268.7 -168 267 C-167.34 267 -166.68 267 -166 267 C-165.67 265.35 -165.34 263.7 -165 262 C-164.34 262 -163.68 262 -163 262 C-162.9175 261.278125 -162.835 260.55625 -162.75 259.8125 C-161.84960277 256.43601039 -160.19816861 254.679018 -158 252 C-157.22166466 249.81785432 -157.22166466 249.81785432 -157 248 C-156.34 248 -155.68 248 -155 248 C-154.67 246.68 -154.34 245.36 -154 244 C-153.34 244 -152.68 244 -152 244 C-151.67 242.35 -151.34 240.7 -151 239 C-150.34 239 -149.68 239 -149 239 C-148.505 236.03 -148.505 236.03 -148 233 C-147.34 233 -146.68 233 -146 233 C-144.92474806 230.34771188 -143.90543849 227.71631546 -143 225 C-142.34 225 -141.68 225 -141 225 C-140.67 223.35 -140.34 221.7 -140 220 C-139.34 220 -138.68 220 -138 220 C-137.67 218.68 -137.34 217.36 -137 216 C-136.34 216 -135.68 216 -135 216 C-134.67 214.35 -134.34 212.7 -134 211 C-133.34 211 -132.68 211 -132 211 C-131.814375 209.8553125 -131.814375 209.8553125 -131.625 208.6875 C-131 206 -131 206 -129 203 C-128.34 203 -127.68 203 -127 203 C-126.87625 202.030625 -126.7525 201.06125 -126.625 200.0625 C-126.41875 199.051875 -126.2125 198.04125 -126 197 C-125.34 196.67 -124.68 196.34 -124 196 C-123.67 195.01 -123.34 194.02 -123 193 C-122.34 193 -121.68 193 -121 193 C-120.67 191.35 -120.34 189.7 -120 188 C-119.34 188 -118.68 188 -118 188 C-117.67 186.35 -117.34 184.7 -117 183 C-116.34 183 -115.68 183 -115 183 C-115 182.01 -115 181.02 -115 180 C-114.34 180 -113.68 180 -113 180 C-112.67 178.35 -112.34 176.7 -112 175 C-111.34 175 -110.68 175 -110 175 C-109.67 173.68 -109.34 172.36 -109 171 C-108.34 171 -107.68 171 -107 171 C-106.67 169.35 -106.34 167.7 -106 166 C-105.34 166 -104.68 166 -104 166 C-103.896875 165.278125 -103.79375 164.55625 -103.6875 163.8125 C-102.93206053 160.72206579 -101.84468685 158.58256159 -100 156 C-99.34 156 -98.68 156 -98 156 C-97.87625 155.4225 -97.7525 154.845 -97.625 154.25 C-96.99351176 151.97664233 -96.11141809 150.0746471 -95 148 C-94.34 148 -93.68 148 -93 148 C-92.67 146.35 -92.34 144.7 -92 143 C-91.34 143 -90.68 143 -90 143 C-89.67 141.35 -89.34 139.7 -89 138 C-88.34 138 -87.68 138 -87 138 C-86.67 136.68 -86.34 135.36 -86 134 C-85.34 134 -84.68 134 -84 134 C-83.87625 133.4225 -83.7525 132.845 -83.625 132.25 C-82.99351176 129.97664233 -82.11141809 128.0746471 -81 126 C-80.34 126 -79.68 126 -79 126 C-78.67 124.35 -78.34 122.7 -78 121 C-77.34 121 -76.68 121 -76 121 C-75.88527344 120.42765625 -75.77054687 119.8553125 -75.65234375 119.265625 C-74.93817644 116.78528344 -73.92692128 114.93631303 -72.5625 112.75 C-72.13066406 112.04359375 -71.69882813 111.3371875 -71.25390625 110.609375 C-70.63322266 109.81273438 -70.63322266 109.81273438 -70 109 C-69.34 109 -68.68 109 -68 109 C-67.67 107.35 -67.34 105.7 -67 104 C-66.34 104 -65.68 104 -65 104 C-64.67 102.35 -64.34 100.7 -64 99 C-63.34 99 -62.68 99 -62 99 C-61.67 97.35 -61.34 95.7 -61 94 C-60.34 94 -59.68 94 -59 94 C-58.67 92.35 -58.34 90.7 -58 89 C-57.34 89 -56.68 89 -56 89 C-55.5359375 87.824375 -55.5359375 87.824375 -55.0625 86.625 C-54 84 -54 84 -53 82 C-52.34 82 -51.68 82 -51 82 C-50.67 80.35 -50.34 78.7 -50 77 C-49.34 77 -48.68 77 -48 77 C-47.67 75.35 -47.34 73.7 -47 72 C-46.34 72 -45.68 72 -45 72 C-44.67 70.35 -44.34 68.7 -44 67 C-43.34 67 -42.68 67 -42 67 C-41.7525 66.319375 -41.505 65.63875 -41.25 64.9375 C-39.75802092 61.43134917 -37.93164489 58.28379632 -36 55 C-35.34 55 -34.68 55 -34 55 C-33.67 53.35 -33.34 51.7 -33 50 C-32.34 50 -31.68 50 -31 50 C-30.67 48.35 -30.34 46.7 -30 45 C-29.34 45 -28.68 45 -28 45 C-27.67 43.68 -27.34 42.36 -27 41 C-26.34 41 -25.68 41 -25 41 C-24.814375 40.13375 -24.814375 40.13375 -24.625 39.25 C-23.99351176 36.97664233 -23.11141809 35.0746471 -22 33 C-21.34 33 -20.68 33 -20 33 C-19.67 31.35 -19.34 29.7 -19 28 C-18.34 28 -17.68 28 -17 28 C-16.67 26.68 -16.34 25.36 -16 24 C-15.34 24 -14.68 24 -14 24 C-13.67 22.35 -13.34 20.7 -13 19 C-12.34 19 -11.68 19 -11 19 C-10.814375 18.13375 -10.814375 18.13375 -10.625 17.25 C-9.99351176 14.97664233 -9.11141809 13.0746471 -8 11 C-7.34 11 -6.68 11 -6 11 C-5.67 9.35 -5.34 7.7 -5 6 C-4.34 6 -3.68 6 -3 6 C-2.67 4.68 -2.34 3.36 -2 2 C-1.34 2 -0.68 2 0 2 C0 1.34 0 0.68 0 0 Z " transform="translate(241,8)"/>
    <path d="M0 0 C22.40874194 -0.02332665 44.81748188 -0.04097802 67.22623348 -0.05181217 C77.63023725 -0.05697563 88.03423349 -0.06401926 98.43823242 -0.07543945 C107.50290274 -0.08538478 116.5675676 -0.09185307 125.63224322 -0.09408849 C130.43502608 -0.09539586 135.23779334 -0.09848333 140.04057121 -0.10573006 C144.555668 -0.11248789 149.07074268 -0.11461745 153.58584404 -0.11310768 C155.2479718 -0.11338412 156.91010026 -0.11539064 158.57222366 -0.11920547 C160.83149692 -0.12413904 163.09068534 -0.12299955 165.34996033 -0.12025452 C166.61742568 -0.12117631 167.88489103 -0.1220981 169.19076443 -0.12304783 C172 0 172 0 173 1 C173.09698498 3.18959038 173.12186727 5.3823753 173.12025452 7.57411194 C173.12153615 8.61669943 173.12153615 8.61669943 173.12284368 9.68034929 C173.12450049 12.02658986 173.11897387 14.37276008 173.11352539 16.71899414 C173.11324354 18.39399718 173.11340122 20.06900033 173.1139679 21.7440033 C173.11425594 26.30579279 173.10835814 30.86755623 173.10139394 35.42933965 C173.09516151 40.19129 173.09455669 44.9532409 173.09336853 49.7151947 C173.09025489 58.73915566 173.08204106 67.76310456 173.07201904 76.7870602 C173.06085893 87.05774487 173.05534771 97.32843009 173.05032361 107.59911931 C173.03985847 128.73275294 173.02225839 149.86637571 173 171 C171.35 171.33 169.7 171.66 168 172 C168 171.34 168 170.68 168 170 C167.46375 169.938125 166.9275 169.87625 166.375 169.8125 C160.86454888 167.92734567 157.49993784 163.4031476 154 159 C153.0925 158.278125 152.185 157.55625 151.25 156.8125 C150.5075 156.214375 149.765 155.61625 149 155 C149 154.34 149 153.68 149 153 C148.34 153 147.68 153 147 153 C145.66104368 151.33784732 144.32869858 149.67036393 143 148 C141.35704805 146.63755204 139.69175663 145.30135125 138 144 C136.1875 142.375 136.1875 142.375 135 141 C135 140.34 135 139.68 135 139 C134.34 139 133.68 139 133 139 C131.66104368 137.33784732 130.32869858 135.67036393 129 134 C127.824375 133.071875 127.824375 133.071875 126.625 132.125 C123.83324798 129.86501027 121.75987132 127.41574236 119.4765625 124.6640625 C117.5394632 122.48098233 115.28664051 120.8052425 113 119 C111.66666667 117.33333333 110.33333333 115.66666667 109 114 C108.0925 113.278125 107.185 112.55625 106.25 111.8125 C105.5075 111.214375 104.765 110.61625 104 110 C104 109.34 104 108.68 104 108 C103.34 108 102.68 108 102 108 C100.64613064 106.34997172 99.31321858 104.6825613 98 103 C97.34 102.67 96.68 102.34 96 102 C96 101.34 96 100.68 96 100 C94.515 99.505 94.515 99.505 93 99 C93 98.34 93 97.68 93 97 C92.443125 96.7525 91.88625 96.505 91.3125 96.25 C88.57589087 94.77075182 86.32349131 93.06532561 84 91 C84 90.34 84 89.68 84 89 C82.515 88.505 82.515 88.505 81 88 C81 87.34 81 86.68 81 86 C79.515 85.505 79.515 85.505 78 85 C78 84.34 78 83.68 78 83 C76.515 82.505 76.515 82.505 75 82 C75 81.34 75 80.68 75 80 C74.360625 79.731875 73.72125 79.46375 73.0625 79.1875 C71 78 71 78 70 75 C68.515 74.505 68.515 74.505 67 74 C67 73.34 67 72.68 67 72 C65.515 71.505 65.515 71.505 64 71 C64 70.34 64 69.68 64 69 C63.01 68.67 62.02 68.34 61 68 C61 67.34 61 66.68 61 66 C60.360625 65.731875 59.72125 65.46375 59.0625 65.1875 C57 64 57 64 56 61 C55.01 60.67 54.02 60.34 53 60 C53 59.34 53 58.68 53 58 C52.01 57.67 51.02 57.34 50 57 C50 56.34 50 55.68 50 55 C49.01 54.67 48.02 54.34 47 54 C47 53.34 47 52.68 47 52 C46.4225 51.7525 45.845 51.505 45.25 51.25 C42.67060021 49.81700012 40.93878408 48.21575324 39 46 C39 45.34 39 44.68 39 44 C38.01 43.67 37.02 43.34 36 43 C36 42.34 36 41.68 36 41 C35.01 40.67 34.02 40.34 33 40 C33 39.34 33 38.68 33 38 C32.01 37.67 31.02 37.34 30 37 C30 36.34 30 35.68 30 35 C29.360625 34.731875 28.72125 34.46375 28.0625 34.1875 C26 33 26 33 25 30 C24.01 29.67 23.02 29.34 22 29 C22 28.34 22 27.68 22 27 C21.01 26.67 20.02 26.34 19 26 C19 25.34 19 24.68 19 24 C18.01 23.67 17.02 23.34 16 23 C16 22.34 16 21.68 16 21 C15.4225 20.7525 14.845 20.505 14.25 20.25 C11.67060021 18.81700012 9.93878408 17.21575324 8 15 C8 14.34 8 13.68 8 13 C7.01 12.67 6.02 12.34 5 12 C5 11.34 5 10.68 5 10 C4.01 9.67 3.02 9.34 2 9 C2 8.34 2 7.68 2 7 C1.34 7 0.68 7 0 7 C0 4.69 0 2.38 0 0 Z " transform="translate(64,321)"/>
    <path d="M0 0 C1.65 0.33 3.3 0.66 5 1 C5 1.66 5 2.32 5 3 C2.69 3.66 0.38 4.32 -2 5 C-2 4.01 -2 3.02 -2 2 C-1.34 2 -0.68 2 0 2 C0 1.34 0 0.68 0 0 Z " transform="translate(266,31)"/>
  </g>

  <style>
    g {
      fill: #000;
    }

    @media (prefers-color-scheme: dark) {
      g {
        fill: #FFF;
      }
    }
  </style>

</svg>
